<svg width="22" height="22" viewBox="0 0 22 22" fill="#F7CF26" xmlns="http://www.w3.org/2000/svg">
<path d="M9.16665 0C6.1334 0 3.66665 2.46675 3.66665 5.5V7.33335C3.66665 8.4682 4.01225 9.52325 4.6035 10.4005C1.85715 11.9845 0 14.9417 0 18.3333V19.25C0 20.7662 1.23385 22 2.75 22H11C11.5069 22 11.9167 21.5893 11.9167 21.0833C11.9167 20.5773 11.5069 20.1667 11 20.1667H2.75C2.244 20.1667 1.83335 19.7551 1.83335 19.25V18.3334C1.83335 15.456 3.49985 12.9617 5.918 11.7618C6.8301 12.4319 7.95115 12.8334 9.16665 12.8334C12.1999 12.8334 14.6667 10.3666 14.6667 7.33339V5.5C14.6667 2.46675 12.1999 0 9.16665 0ZM12.8333 7.33335C12.8333 9.3555 11.1888 11 9.1667 11C7.14454 11 5.5 9.3555 5.5 7.33335V5.5C5.5 3.47785 7.1445 1.83335 9.16665 1.83335C11.1888 1.83335 12.8333 3.47785 12.8333 5.5V7.33335H12.8333Z"/>
<path d="M21.0833 15.5834H17.4167V11.9168C17.4167 11.4108 17.0069 11.0001 16.5 11.0001C15.9931 11.0001 15.5834 11.4108 15.5834 11.9168V15.5834H11.9167C11.4097 15.5834 11 15.9941 11 16.5001C11 17.0061 11.4098 17.4167 11.9167 17.4167H15.5833V21.0834C15.5833 21.5894 15.9931 22 16.5 22C17.0069 22 17.4166 21.5894 17.4166 21.0834V17.4167H21.0833C21.5902 17.4167 21.9999 17.0061 21.9999 16.5001C21.9999 15.9941 21.5902 15.5834 21.0833 15.5834Z"/>
</svg>
