<svg width="17" height="17" viewBox="0 0 17 17" fill="#202020" xmlns="http://www.w3.org/2000/svg">
    <path d="M8.77975 7.86082L8.77974 0.650683C8.77974 0.396834 8.57395 0.19105 8.32012 0.191067C8.06629 0.191083 7.86049 0.39685 7.8605 0.650683L7.86051 7.86083L0.65037 7.86082C0.39652 7.86082 0.190737 8.0666 0.190753 8.32043C0.190769 8.57427 0.396537 8.78007 0.65037 8.78005L7.86049 8.78005L7.86051 15.9902C7.86051 16.244 8.06629 16.4498 8.32012 16.4498C8.44703 16.4498 8.56193 16.3983 8.64511 16.3152C8.72829 16.232 8.77974 16.1171 8.77976 15.9902L8.77974 8.78007L15.9899 8.78007C16.1168 8.78007 16.2317 8.72861 16.3148 8.64543C16.398 8.56224 16.4495 8.44736 16.4495 8.32044C16.4495 8.06659 16.2437 7.8608 15.9899 7.86082L8.77975 7.86082Z"/>
</svg>
